<?xml version="1.0" standalone="no"?>
<svg xmlns="http://www.w3.org/2000/svg" viewBox="0 0 156.312 29" width="156.312" height="29">
    <g fill="#018a00" color="#018a00" transform="translate(0, 0) scale(0.29)">
        <svg width="100.0" height="100.0" x="0.0" y="0.0" viewBox="0 0 100 100">
            <path d="M8.6,68.4c0,5.1,4.1,9.2,9.2,9.2c2.6,0,4.9-1.1,6.6-2.8l16.8,9.7c-0.2,0.8-0.4,1.6-0.4,2.5c0,5.1,4.1,9.2,9.2,9.2  c5.1,0,9.2-4.1,9.2-9.2c0-0.9-0.1-1.7-0.4-2.5l16.8-9.7c1.7,1.7,4,2.8,6.6,2.8c5.1,0,9.2-4.1,9.2-9.2c0-4.3-3-8-7.1-8.9l0-18.9  c4-1,7.1-4.6,7.1-8.9c0-5.1-4.1-9.2-9.2-9.2c-2.6,0-5,1.1-6.7,2.9l-16.7-9.7c0.2-0.8,0.4-1.7,0.4-2.6c0-5.1-4.1-9.2-9.2-9.2  c-5.1,0-9.2,4.1-9.2,9.2c0,0.9,0.1,1.8,0.4,2.6l-16.7,9.7c-1.7-1.8-4-2.9-6.7-2.9c-5.1,0-9.2,4.1-9.2,9.2c0,4.3,2.9,7.9,6.9,8.9  l0,19C11.5,60.5,8.6,64.1,8.6,68.4z M17.8,73.3c-2.7,0-4.9-2.2-4.9-4.9c0-2.7,2.2-4.9,4.9-4.9s4.9,2.2,4.9,4.9  C22.7,71.1,20.5,73.3,17.8,73.3z M50,91.9c-2.7,0-4.9-2.2-4.9-4.9c0-2.7,2.2-4.9,4.9-4.9s4.9,2.2,4.9,4.9  C54.9,89.7,52.7,91.9,50,91.9z M87.2,68.4c0,2.7-2.2,4.9-4.9,4.9s-4.9-2.2-4.9-4.9c0-2.7,2.2-4.9,4.9-4.9S87.2,65.7,87.2,68.4z   M82.2,26.7c2.7,0,4.9,2.2,4.9,4.9c0,2.7-2.2,4.9-4.9,4.9s-4.9-2.2-4.9-4.9C77.3,28.9,79.5,26.7,82.2,26.7z M50,8.1  c2.7,0,4.9,2.2,4.9,4.9c0,0.8-0.2,1.6-0.6,2.3c0,0-0.1,0.1-0.1,0.1c0,0,0,0.1,0,0.1C53.4,17,51.8,18,50,18c-2.7,0-4.9-2.2-4.9-4.9  C45.1,10.3,47.3,8.1,50,8.1z M43.3,19.3c1.7,1.8,4,2.9,6.7,2.9c2.6,0,5-1.1,6.7-2.9L73.4,29c-0.2,0.8-0.4,1.7-0.4,2.6  c0,4.3,3,8,7.1,8.9l0,18.9c-4,1-7.1,4.6-7.1,8.9c0,1,0.1,1.9,0.4,2.8l-16.7,9.6c-1.7-1.8-4.1-3-6.8-3c-2.7,0-5.1,1.2-6.8,3  l-16.7-9.6c0.3-0.9,0.4-1.8,0.4-2.8c0-4.4-3.1-8.1-7.2-9l0-18.8c4.1-0.9,7.3-4.6,7.3-9c0-0.9-0.1-1.8-0.4-2.6L43.3,19.3z M12.8,31.6  c0-2.7,2.2-4.9,4.9-4.9s4.9,2.2,4.9,4.9c0,2.7-2.2,4.9-4.9,4.9S12.8,34.3,12.8,31.6z M50.2,60.9c6,0,10.9-4.9,10.9-10.9  s-4.9-10.9-10.9-10.9c-6,0-10.9,4.9-10.9,10.9S44.2,60.9,50.2,60.9z M50.2,43.3c3.7,0,6.7,3,6.7,6.7s-3,6.7-6.7,6.7  c-3.7,0-6.7-3-6.7-6.7S46.5,43.3,50.2,43.3z M34.2,40.6c0.6-1,1.9-1.3,2.9-0.7c1,0.6,1.3,1.9,0.7,2.9c-0.6,1-1.9,1.3-2.9,0.7  C33.9,42.9,33.6,41.6,34.2,40.6z M28.3,37.2c0.6-1,1.9-1.3,2.9-0.7c1,0.6,1.3,1.9,0.7,2.9c-0.6,1-1.9,1.3-2.9,0.7  C28,39.5,27.7,38.2,28.3,37.2z M62.2,57.2c0.6-1,1.9-1.3,2.9-0.7c1,0.6,1.3,1.9,0.7,2.9c-0.6,1-1.9,1.3-2.9,0.7  C61.9,59.5,61.6,58.2,62.2,57.2z M68,60.7c0.6-1,1.9-1.3,2.9-0.7c1,0.6,1.3,1.9,0.7,2.9c-0.6,1-1.9,1.3-2.9,0.7  C67.8,63,67.5,61.7,68,60.7z M68.2,39.6c-0.6-1-0.2-2.3,0.8-2.9c1-0.6,2.3-0.2,2.9,0.8c0.6,1,0.2,2.3-0.8,2.9  C70.1,41,68.8,40.7,68.2,39.6z M62.3,43c-0.6-1-0.2-2.3,0.8-2.9c1-0.6,2.3-0.2,2.9,0.8c0.6,1,0.2,2.3-0.8,2.9  C64.2,44.4,62.9,44,62.3,43z M28.1,62.5c-0.6-1-0.2-2.3,0.8-2.9c1-0.6,2.3-0.2,2.9,0.8c0.6,1,0.2,2.3-0.8,2.9  C29.9,63.9,28.7,63.5,28.1,62.5z M34,59.1c-0.6-1-0.2-2.3,0.8-2.9c1-0.6,2.3-0.2,2.9,0.8c0.6,1,0.2,2.3-0.8,2.9  C35.9,60.5,34.6,60.1,34,59.1z M47.9,26.9c0-1.2,1-2.1,2.1-2.1c1.2,0,2.1,1,2.1,2.1c0,1.2-1,2.1-2.1,2.1  C48.8,29,47.9,28.1,47.9,26.9z M47.9,33.7c0-1.2,1-2.1,2.1-2.1c1.2,0,2.1,0.9,2.1,2.1c0,1.2-1,2.1-2.1,2.1  C48.8,35.9,47.9,34.9,47.9,33.7z M52.1,73.1c0,1.2-1,2.1-2.1,2.1c-1.2,0-2.1-1-2.1-2.1c0-1.2,1-2.1,2.1-2.1  C51.2,71,52.1,71.9,52.1,73.1z M52.1,66.3c0,1.2-1,2.1-2.1,2.1c-1.2,0-2.1-0.9-2.1-2.1c0-1.2,1-2.1,2.1-2.1  C51.2,64.2,52.1,65.1,52.1,66.3z"></path>
        </svg>
    </g>
    <line x1="41" y1="1" x2="41" y2="28" stroke="#000000" stroke-linecap="round"></line>
    <path fill="#000000" fill-rule="nonzero"
          d="M1.08 17.76Q0.62 17.76 0.31 17.45Q0 17.14 0 16.68L0 16.68L0 2.35Q0 1.70 0.46 1.24Q0.91 0.77 1.56 0.77L1.56 0.77L1.87 0.77Q2.64 0.77 3.19 1.49L3.19 1.49L12.43 14.83L12.43 1.87Q12.43 1.42 12.74 1.09Q13.06 0.77 13.51 0.77L13.51 0.77Q13.97 0.77 14.29 1.09Q14.62 1.42 14.62 1.87L14.62 1.87L14.62 16.20Q14.62 16.85 14.15 17.30Q13.68 17.76 13.03 17.76L13.03 17.76L12.74 17.76Q12.36 17.76 12.02 17.58Q11.69 17.40 11.47 17.11L11.47 17.11L2.18 3.70L2.18 16.68Q2.18 17.14 1.86 17.45Q1.54 17.76 1.08 17.76L1.08 17.76ZM23.98 17.88Q21.05 17.88 19.40 16.21Q17.76 14.54 17.76 11.52L17.76 11.52Q17.76 9.82 18.38 8.38Q19.01 6.94 20.30 6.05Q21.60 5.16 23.50 5.16L23.50 5.16Q25.27 5.16 26.57 5.99Q27.86 6.82 28.54 8.20Q29.21 9.58 29.21 11.21L29.21 11.21Q29.21 11.66 28.91 11.98Q28.61 12.29 28.10 12.29L28.10 12.29L19.97 12.29Q20.16 13.97 21.22 14.90Q22.27 15.84 24.17 15.84L24.17 15.84Q25.18 15.84 25.93 15.65Q26.69 15.46 27.41 15.10L27.41 15.10Q27.60 15 27.84 15L27.84 15Q28.22 15 28.51 15.26Q28.80 15.53 28.80 15.94L28.80 15.94Q28.80 16.46 28.18 16.82L28.18 16.82Q27.24 17.35 26.33 17.62Q25.42 17.88 23.98 17.88L23.98 17.88ZM19.97 10.51L27.05 10.51Q26.98 9.34 26.44 8.54Q25.90 7.75 25.10 7.38Q24.31 7.01 23.50 7.01L23.50 7.01Q22.68 7.01 21.89 7.38Q21.10 7.75 20.57 8.54Q20.04 9.34 19.97 10.51L19.97 10.51ZM36.31 17.88Q32.81 17.88 32.81 14.71L32.81 14.71L32.81 7.27L31.10 7.27Q30.91 7.27 30.78 7.14Q30.65 7.01 30.65 6.82L30.65 6.82Q30.65 6.58 30.86 6.41L30.86 6.41L34.13 3.22Q34.34 3 34.54 3L34.54 3Q34.73 3 34.86 3.14Q34.99 3.29 34.99 3.48L34.99 3.48L34.99 5.40L37.70 5.40Q38.11 5.40 38.38 5.66Q38.64 5.93 38.64 6.34L38.64 6.34Q38.64 6.72 38.38 7.00Q38.11 7.27 37.70 7.27L37.70 7.27L34.99 7.27L34.99 14.52Q34.99 15.46 35.44 15.71Q35.88 15.96 36.55 15.96L36.55 15.96Q37.03 15.96 37.51 15.82L37.51 15.82Q37.61 15.79 37.72 15.77Q37.82 15.74 37.99 15.74L37.99 15.74Q38.33 15.74 38.59 16.00Q38.86 16.25 38.86 16.61L38.86 16.61Q38.86 17.16 38.30 17.45L38.30 17.45Q37.37 17.88 36.31 17.88L36.31 17.88ZM44.78 17.76Q44.30 17.76 43.92 17.47Q43.54 17.18 43.39 16.75L43.39 16.75L39.98 6.77Q39.91 6.55 39.91 6.36L39.91 6.36Q39.91 5.90 40.22 5.59Q40.54 5.28 40.99 5.28L40.99 5.28Q41.33 5.28 41.60 5.46Q41.88 5.64 41.98 5.93L41.98 5.93L44.78 15.17L47.57 6.14Q47.69 5.76 48.01 5.52Q48.34 5.28 48.74 5.28L48.74 5.28Q49.15 5.28 49.48 5.52Q49.80 5.76 49.92 6.14L49.92 6.14L52.70 15.17L55.51 5.93Q55.61 5.64 55.88 5.46Q56.16 5.28 56.50 5.28L56.50 5.28Q56.95 5.28 57.26 5.59Q57.58 5.90 57.58 6.36L57.58 6.36Q57.58 6.55 57.50 6.77L57.50 6.77L54.10 16.75Q53.95 17.18 53.57 17.47Q53.18 17.76 52.70 17.76L52.70 17.76Q52.22 17.76 51.84 17.47Q51.46 17.18 51.29 16.73L51.29 16.73L48.74 8.78L46.20 16.73Q46.03 17.18 45.65 17.47Q45.26 17.76 44.78 17.76L44.78 17.76ZM65.38 17.88Q63.53 17.88 62.14 17.09Q60.74 16.30 59.99 14.84Q59.23 13.39 59.23 11.52L59.23 11.52Q59.23 9.65 59.99 8.20Q60.74 6.74 62.14 5.95Q63.53 5.16 65.38 5.16L65.38 5.16Q67.20 5.16 68.59 5.95Q69.98 6.74 70.75 8.20Q71.52 9.65 71.52 11.52L71.52 11.52Q71.52 13.39 70.75 14.84Q69.98 16.30 68.59 17.09Q67.20 17.88 65.38 17.88L65.38 17.88ZM65.38 15.89Q66.36 15.89 67.26 15.43Q68.16 14.98 68.75 13.99Q69.34 13.01 69.34 11.50L69.34 11.50Q69.34 10.01 68.75 9.02Q68.16 8.04 67.26 7.60Q66.36 7.15 65.38 7.15L65.38 7.15Q64.37 7.15 63.47 7.60Q62.57 8.04 61.99 9.02Q61.42 10.01 61.42 11.50L61.42 11.50Q61.42 13.01 61.99 13.99Q62.57 14.98 63.47 15.43Q64.37 15.89 65.38 15.89L65.38 15.89ZM75.65 17.76Q75.19 17.76 74.88 17.45Q74.57 17.14 74.57 16.68L74.57 16.68L74.57 6.38Q74.57 5.93 74.88 5.60Q75.19 5.28 75.65 5.28L75.65 5.28Q76.10 5.28 76.43 5.60Q76.75 5.93 76.75 6.38L76.75 6.38L76.75 7.42Q78.43 5.16 80.52 5.16L80.52 5.16L80.64 5.16Q81.10 5.16 81.40 5.47Q81.70 5.78 81.70 6.24L81.70 6.24Q81.70 6.70 81.38 6.98Q81.07 7.27 80.59 7.27L80.59 7.27L80.47 7.27Q79.32 7.27 78.36 7.84Q77.40 8.40 76.75 9.38L76.75 9.38L76.75 16.68Q76.75 17.14 76.43 17.45Q76.10 17.76 75.65 17.76L75.65 17.76ZM84.84 17.76Q84.38 17.76 84.07 17.45Q83.76 17.14 83.76 16.68L83.76 16.68L83.76 1.10Q83.76 0.65 84.07 0.32Q84.38 0 84.84 0L84.84 0Q85.30 0 85.62 0.32Q85.94 0.65 85.94 1.10L85.94 1.10L85.94 10.92L91.66 5.64Q92.02 5.33 92.38 5.33L92.38 5.33Q92.93 5.33 93.18 5.64Q93.43 5.95 93.43 6.38L93.43 6.38Q93.43 6.79 93.02 7.20L93.02 7.20L89.57 10.30L93.91 16.06Q94.15 16.37 94.15 16.70L94.15 16.70Q94.15 17.18 93.84 17.47Q93.53 17.76 93.05 17.76L93.05 17.76Q92.81 17.76 92.57 17.64Q92.33 17.52 92.16 17.30L92.16 17.30L88.03 11.69L85.94 13.58L85.94 16.68Q85.94 17.14 85.62 17.45Q85.30 17.76 84.84 17.76L84.84 17.76ZM100.68 17.88Q98.28 17.88 96.31 16.80L96.31 16.80Q95.90 16.51 95.90 16.01L95.90 16.01Q95.90 15.62 96.17 15.34Q96.43 15.05 96.84 15.05L96.84 15.05Q97.06 15.05 97.27 15.14L97.27 15.14Q98.04 15.48 98.81 15.67Q99.58 15.86 100.54 15.86L100.54 15.86Q103.20 15.86 103.20 14.16L103.20 14.16Q103.20 13.61 102.59 13.32Q101.98 13.03 100.58 12.67L100.58 12.67Q99.17 12.34 98.24 11.98Q97.32 11.62 96.66 10.88Q96 10.15 96 8.95L96 8.95Q96 7.27 97.21 6.22Q98.42 5.16 100.68 5.16L100.68 5.16Q102.53 5.16 104.16 5.76L104.16 5.76Q104.50 5.86 104.68 6.12Q104.86 6.38 104.86 6.67L104.86 6.67Q104.86 7.06 104.58 7.34Q104.30 7.63 103.90 7.63L103.90 7.63Q103.78 7.63 103.58 7.58L103.58 7.58Q102.19 7.15 100.85 7.15L100.85 7.15Q99.55 7.15 98.82 7.62Q98.09 8.09 98.09 8.83L98.09 8.83Q98.09 9.55 98.76 9.89Q99.43 10.22 100.85 10.54L100.85 10.54Q102.26 10.90 103.15 11.24Q104.04 11.59 104.68 12.34Q105.31 13.08 105.31 14.33L105.31 14.33Q105.31 15.86 104.10 16.87Q102.89 17.88 100.68 17.88L100.68 17.88Z"
          transform="translate(51, 5.56)"></path>
</svg>