<?xml version="1.0" encoding="UTF-8" standalone="no"?>
<!-- Created with Inkscape (http://www.inkscape.org/) -->

<svg
        xmlns:inkscape="http://www.inkscape.org/namespaces/inkscape"
        xmlns:sodipodi="http://sodipodi.sourceforge.net/DTD/sodipodi-0.dtd"
        xmlns:xlink="http://www.w3.org/1999/xlink"
        width="128"
        height="128"
        viewBox="0 0 33.866666 33.866668"
        version="1.1"
        id="svg5"
        inkscape:version="1.1 (c68e22c387, 2021-05-23)"
        sodipodi:docname="networks_sefi_logo.svg"
        xmlns="http://www.w3.org/2000/svg"
>
    <sodipodi:namedview
            id="namedview7"
            pagecolor="#ffffff"
            bordercolor="#666666"
            borderopacity="1.0"
            inkscape:pageshadow="2"
            inkscape:pageopacity="0.0"
            inkscape:pagecheckerboard="0"
            inkscape:document-units="mm"
            showgrid="false"
            units="px"
            width="128px"
            inkscape:zoom="5.6568542"
            inkscape:cx="86.70897"
            inkscape:cy="34.117902"
            inkscape:window-width="3840"
            inkscape:window-height="2054"
            inkscape:window-x="-11"
            inkscape:window-y="-11"
            inkscape:window-maximized="1"
            inkscape:current-layer="layer1-3"
            showguides="false"/>
    <defs
            id="defs2">
        <linearGradient
                inkscape:collect="always"
                id="linearGradient9568">
            <stop
                    style="stop-color:#905ab5;stop-opacity:1"
                    offset="0"
                    id="stop9564"/>
            <stop
                    style="stop-color:#e17def;stop-opacity:1"
                    offset="1"
                    id="stop9566"/>
        </linearGradient>
        <linearGradient
                id="linearGradient8900"
                inkscape:swatch="gradient">
            <stop
                    style="stop-color:#4831d4;stop-opacity:1;"
                    offset="0"
                    id="stop8896"/>
            <stop
                    style="stop-color:#4831d4;stop-opacity:0;"
                    offset="1"
                    id="stop8898"/>
        </linearGradient>
        <inkscape:path-effect
                effect="powerclip"
                id="path-effect8447"
                is_visible="true"
                lpeversion="1"
                inverse="true"
                flatten="false"
                hide_clip="false"
                message="Use fill-rule evenodd on &lt;b&gt;fill and stroke&lt;/b&gt; dialog if no flatten result after convert clip to paths."/>
        <clipPath
                clipPathUnits="userSpaceOnUse"
                id="clipPath8688">
            <g
                    data-name="Star magic"
                    id="g8700"
                    transform="matrix(0.59202201,0.09076581,-0.09076581,0.59202201,-3.8679681,-3.4540235)">
                <path
                        d="m 16.29,32.27 c 0,1.22 1.29,1.87 3.65,3.06 a 20.12,20.12 0 0 1 8.87,8.87 c 1.19,2.36 1.84,3.66 3.06,3.66 1.22,0 1.88,-1.3 3.06,-3.66 a 20.23,20.23 0 0 1 8.87,-8.87 c 2.36,-1.19 3.66,-1.84 3.66,-3.06 0,-1.22 -1.3,-1.87 -3.66,-3.06 a 20.12,20.12 0 0 1 -8.87,-8.87 c -1.18,-2.36 -1.84,-3.66 -3.06,-3.66 -1.22,0 -1.87,1.32 -3.06,3.66 a 20,20 0 0 1 -8.87,8.87 c -2.36,1.19 -3.65,1.84 -3.65,3.06 z m 14.31,-11 c 0.36,-0.71 0.91,-1.8 1.27,-2.33 a 24.66,24.66 0 0 1 1.28,2.33 22.12,22.12 0 0 0 9.75,9.73 c 0.71,0.36 1.81,0.91 2.34,1.27 a 22.82,22.82 0 0 1 -2.34,1.27 22.17,22.17 0 0 0 -9.75,9.76 24.89,24.89 0 0 1 -1.28,2.34 C 31.51,45.11 31,44 30.6,43.3 a 22.19,22.19 0 0 0 -9.76,-9.76 22.61,22.61 0 0 1 -2.33,-1.27 c 0.53,-0.36 1.62,-0.91 2.33,-1.27 a 22.14,22.14 0 0 0 9.76,-9.76 z"
                        id="path8690"/>
                <path
                        d="m 10.16,20.2 a 10.6,10.6 0 0 1 6.36,1.7 c 1.07,0.7 2,1.43 2.92,0.91 0.92,-0.52 0.77,-1.42 0.68,-3 a 10.6,10.6 0 0 1 1.7,-6.36 c 0.87,-1.31 1.39,-2.1 0.91,-2.92 -0.48,-0.82 -1.42,-0.77 -3,-0.68 A 10.5,10.5 0 0 1 13.38,8.15 C 12.06,7.29 11.27,6.77 10.45,7.24 9.63,7.71 9.68,8.66 9.77,10.24 a 10.53,10.53 0 0 1 -1.7,6.36 c -0.86,1.31 -1.38,2.1 -0.91,2.92 0.47,0.82 1.43,0.77 3,0.68 z M 9.75,17.7 a 12.63,12.63 0 0 0 2,-7.58 c 0,-0.17 0,-0.41 0,-0.64 l 0.54,0.35 a 12.58,12.58 0 0 0 7.57,2 h 0.64 l -0.35,0.54 a 12.58,12.58 0 0 0 -2,7.57 c 0,0.17 0,0.41 0,0.64 L 17.61,20.23 A 12.62,12.62 0 0 0 10.74,18.18 H 10.03 9.39 Z"
                        id="path8692"/>
                <path
                        d="m 54.22,44.18 c 0.09,-1.57 0.14,-2.52 -0.68,-3 -0.82,-0.48 -1.61,0.05 -2.93,0.91 a 10.56,10.56 0 0 1 -6.36,1.7 v 0 c -1.56,-0.09 -2.51,-0.14 -3,0.68 -0.49,0.82 0,1.61 0.91,2.92 a 10.6,10.6 0 0 1 1.7,6.36 c -0.09,1.57 -0.14,2.52 0.67,3 0.81,0.48 1.79,-0.16 2.93,-0.91 a 10.53,10.53 0 0 1 6.36,-1.7 c 1.57,0.09 2.52,0.14 3,-0.68 0.48,-0.82 0,-1.61 -0.91,-2.92 a 10.53,10.53 0 0 1 -1.69,-6.36 z m -0.26,8 a 12.7,12.7 0 0 0 -7.58,2 l -0.54,0.35 c 0,-0.23 0,-0.47 0,-0.64 a 12.58,12.58 0 0 0 -2,-7.57 l -0.35,-0.54 h 0.64 a 12.58,12.58 0 0 0 7.57,-2 l 0.54,-0.35 c 0,0.23 0,0.47 0,0.64 a 12.58,12.58 0 0 0 2,7.57 c 0.09,0.15 0.22,0.35 0.35,0.54 C 54.37,52.17 54.13,52.15 54,52.14 Z"
                        id="path8694"/>
                <path
                        d="m 42.83,20.68 c -0.07,1.31 -0.12,2.17 0.65,2.61 0.77,0.44 1.69,-0.16 2.59,-0.75 a 8.55,8.55 0 0 1 5.11,-1.37 c 1.31,0.08 2.18,0.13 2.62,-0.64 0.44,-0.77 0,-1.49 -0.75,-2.59 a 8.48,8.48 0 0 1 -1.37,-5.11 c 0.07,-1.31 0.12,-2.18 -0.64,-2.62 -0.76,-0.44 -1.5,0 -2.59,0.75 a 8.6,8.6 0 0 1 -5.12,1.37 c -1.31,-0.08 -2.17,-0.13 -2.62,0.64 -0.45,0.77 0,1.49 0.75,2.59 a 8.43,8.43 0 0 1 1.37,5.12 z m 0.39,-6.35 v 0 a 10.53,10.53 0 0 0 6.32,-1.7 l 0.15,-0.1 a 1,1 0 0 1 0,0.18 10.58,10.58 0 0 0 1.69,6.29 l 0.1,0.15 H 51.3 A 10.5,10.5 0 0 0 45,20.87 l -0.15,0.1 a 1.21,1.21 0 0 0 0,-0.18 10.5,10.5 0 0 0 -1.69,-6.33 1,1 0 0 1 -0.1,-0.15 z"
                        id="path8696"/>
                <path
                        d="m 12.91,52.75 a 8.46,8.46 0 0 1 4.67,2.49 c 0.71,0.74 1.43,1.6 2.35,1.31 0.92,-0.29 1,-1.11 1.22,-2.4 a 8.52,8.52 0 0 1 2.49,-4.67 c 0.95,-0.91 1.58,-1.51 1.32,-2.36 -0.26,-0.85 -1.11,-1 -2.41,-1.22 a 8.46,8.46 0 0 1 -4.67,-2.49 c -0.91,-0.95 -1.5,-1.57 -2.35,-1.31 -0.85,0.26 -1,1.11 -1.22,2.4 a 8.52,8.52 0 0 1 -2.49,4.67 c -1,0.91 -1.58,1.51 -1.32,2.36 0.26,0.85 1.11,0.99 2.41,1.22 z m 0.29,-2.13 v 0 a 10.5,10.5 0 0 0 3.08,-5.78 v -0.17 l 0.12,0.12 a 10.48,10.48 0 0 0 5.78,3.08 h 0.18 L 22.23,48 a 10.5,10.5 0 0 0 -3.08,5.78 v 0.17 L 19,53.85 a 10.52,10.52 0 0 0 -5.78,-3.07 h -0.18 z"
                        id="path8698"/>
            </g>
        </clipPath>
        <filter
                inkscape:collect="always"
                style="color-interpolation-filters:sRGB"
                id="filter8936-0"
                x="-0.0031225997"
                y="-0.0031225997"
                width="1.0062452"
                height="1.0062452">
            <feGaussianBlur
                    inkscape:collect="always"
                    stdDeviation="0.044063348"
                    id="feGaussianBlur8938-7"/>
        </filter>
        <clipPath
                clipPathUnits="userSpaceOnUse"
                id="clipPath10506">
            <circle
                    style="fill:url(#linearGradient10510);fill-opacity:1;stroke-width:0.139913;filter:url(#filter8936-0)"
                    id="circle10508"
                    r="16.933332"
                    cy="17.039085"
                    cx="17.039085"
                    transform="matrix(15.548093,0,0,15.548093,-59.635365,75.662129)"/>
        </clipPath>
        <linearGradient
                inkscape:collect="always"
                xlink:href="#linearGradient9568"
                id="linearGradient10510"
                gradientUnits="userSpaceOnUse"
                gradientTransform="translate(0.10575114,0.10575211)"
                x1="25.490831"
                y1="41.253052"
                x2="10.664054"
                y2="-6.0803819"/>
        <filter
                inkscape:collect="always"
                style="color-interpolation-filters:sRGB"
                id="filter8936-5"
                x="-0.0031225997"
                y="-0.0031225997"
                width="1.0062452"
                height="1.0062452">
            <feGaussianBlur
                    inkscape:collect="always"
                    stdDeviation="0.044063348"
                    id="feGaussianBlur8938-2"/>
        </filter>
        <clipPath
                clipPathUnits="userSpaceOnUse"
                id="clipPath11890">
            <circle
                    style="fill:#ff7900;fill-opacity:1;stroke-width:0.139913;filter:url(#filter8936-5)"
                    id="circle11892"
                    cx="17.039085"
                    cy="17.039085"
                    r="16.933332"
                    transform="matrix(0.85653876,0,0,0.85653876,1.3041766,-4.8068591)"/>
        </clipPath>
        <filter
                inkscape:collect="always"
                style="color-interpolation-filters:sRGB"
                id="filter8936-52"
                x="-0.0031225997"
                y="-0.0031225997"
                width="1.0062452"
                height="1.0062452">
            <feGaussianBlur
                    inkscape:collect="always"
                    stdDeviation="0.044063348"
                    id="feGaussianBlur8938-8"/>
        </filter>
        <clipPath
                clipPathUnits="userSpaceOnUse"
                id="clipPath12419">
            <circle
                    style="fill:#00c4d4;fill-opacity:1;stroke-width:0.139913;filter:url(#filter8936-52)"
                    id="circle12421"
                    cx="17.039085"
                    cy="17.039085"
                    r="16.933332"
                    transform="matrix(15.913538,8.5076814,-8.5076814,15.913538,43.979044,-122.82167)"/>
        </clipPath>
        <filter
                inkscape:collect="always"
                style="color-interpolation-filters:sRGB"
                id="filter8936-2"
                x="-0.0031225997"
                y="-0.0031225997"
                width="1.0062452"
                height="1.0062452">
            <feGaussianBlur
                    inkscape:collect="always"
                    stdDeviation="0.044063348"
                    id="feGaussianBlur8938-3"/>
        </filter>
        <clipPath
                clipPathUnits="userSpaceOnUse"
                id="clipPath13222">
            <circle
                    style="fill:#6b2828;fill-opacity:1;stroke-width:0.139913;filter:url(#filter8936-2)"
                    id="circle13224"
                    cx="17.039085"
                    cy="17.039085"
                    r="16.933332"
                    transform="matrix(0.63879339,0,0,0.63879339,5.5164657,5.0073003)"/>
        </clipPath>
        <clipPath
                clipPathUnits="userSpaceOnUse"
                id="clipPath14356">
            <circle
                    style="fill:#cc67df;fill-opacity:1;stroke-width:0.139913"
                    id="circle14358"
                    cx="16.933332"
                    cy="16.933332"
                    r="16.933332"/>
        </clipPath>
        <style
                type="text/css"
                id="style15365">

            .fil0 {fill:currentColor}

        </style>
    </defs>
    <g
            inkscape:label="Layer 1"
            inkscape:groupmode="layer"
            id="layer1">
        <g
                style="fill:#ffffff"
                id="g13156"
                transform="matrix(1.4303494,0,0,1.4303494,-6.8399812,-6.0773021)"
                clip-path="url(#clipPath13222)">
            <path
                    clip-rule="evenodd"
                    d="M 3,5 C 3,3.89543 3.89543,3 5,3 h 4 c 1.1046,0 2,0.89543 2,2 v 4 c 0,1.1046 -0.8954,2 -2,2 H 5 C 3.89543,11 3,10.1046 3,9 Z M 9,5 H 5 v 4 h 4 z"
                    fill="#000000"
                    fill-rule="evenodd"
                    id="path13138"
                    style="fill:#ffffff"/>
            <path
                    clip-rule="evenodd"
                    d="m 3,15 c 0,-1.1046 0.89543,-2 2,-2 h 4 c 1.1046,0 2,0.8954 2,2 v 4 c 0,1.1046 -0.8954,2 -2,2 H 5 C 3.89543,21 3,20.1046 3,19 Z m 6,0 H 5 v 4 h 4 z"
                    fill="#000000"
                    fill-rule="evenodd"
                    id="path13140"
                    style="fill:#ffffff"/>
            <path
                    clip-rule="evenodd"
                    d="m 13,5 c 0,-1.10457 0.8954,-2 2,-2 h 4 c 1.1046,0 2,0.89543 2,2 v 4 c 0,1.1046 -0.8954,2 -2,2 h -4 c -1.1046,0 -2,-0.8954 -2,-2 z m 6,0 h -4 v 4 h 4 z"
                    fill="#000000"
                    fill-rule="evenodd"
                    id="path13142"
                    style="fill:#ffffff"/>
            <path
                    clip-rule="evenodd"
                    d="m 13,15 c 0,-1.1046 0.8954,-2 2,-2 h 4 c 1.1046,0 2,0.8954 2,2 v 4 c 0,1.1046 -0.8954,2 -2,2 h -4 c -1.1046,0 -2,-0.8954 -2,-2 z m 6,0 h -4 v 4 h 4 z"
                    fill="#000000"
                    fill-rule="evenodd"
                    id="path13144"
                    style="fill:#ffffff"/>
        </g>
        <g
                inkscape:label="Layer 1"
                id="layer1-3">
            <circle
                    style="fill:#018a00;fill-opacity:1;stroke-width:0.139913"
                    id="path846"
                    cx="16.933332"
                    cy="16.933332"
                    r="16.933332"/>
            <g
                    id="g15393"
                    transform="matrix(1.0617784,0,0,1.0617904,44.831598,-122.97249)">
                <g
                        fill="#018a00"
                        color="#018a00"
                        transform="matrix(0.29,0,0,0.29,-40.654794,117.57787)"
                        id="g6"
                        style="fill:#ffffff;fill-opacity:1">
                    <svg
                            width="100"
                            height="100"
                            x="0.0"
                            y="0.0"
                            viewBox="0 0 100 100"
                            version="1.1"
                            id="svg4"
                            style="fill:#ffffff;fill-opacity:1">
                        <path
                                d="m 8.6,68.4 c 0,5.1 4.1,9.2 9.2,9.2 2.6,0 4.9,-1.1 6.6,-2.8 l 16.8,9.7 c -0.2,0.8 -0.4,1.6 -0.4,2.5 0,5.1 4.1,9.2 9.2,9.2 5.1,0 9.2,-4.1 9.2,-9.2 0,-0.9 -0.1,-1.7 -0.4,-2.5 l 16.8,-9.7 c 1.7,1.7 4,2.8 6.6,2.8 5.1,0 9.2,-4.1 9.2,-9.2 0,-4.3 -3,-8 -7.1,-8.9 V 40.6 c 4,-1 7.1,-4.6 7.1,-8.9 0,-5.1 -4.1,-9.2 -9.2,-9.2 -2.6,0 -5,1.1 -6.7,2.9 L 58.8,15.7 C 59,14.9 59.2,14 59.2,13.1 59.2,8 55.1,3.9 50,3.9 c -5.1,0 -9.2,4.1 -9.2,9.2 0,0.9 0.1,1.8 0.4,2.6 l -16.7,9.7 c -1.7,-1.8 -4,-2.9 -6.7,-2.9 -5.1,0 -9.2,4.1 -9.2,9.2 0,4.3 2.9,7.9 6.9,8.9 v 19 c -4,0.9 -6.9,4.5 -6.9,8.8 z m 9.2,4.9 c -2.7,0 -4.9,-2.2 -4.9,-4.9 0,-2.7 2.2,-4.9 4.9,-4.9 2.7,0 4.9,2.2 4.9,4.9 0,2.7 -2.2,4.9 -4.9,4.9 z M 50,91.9 c -2.7,0 -4.9,-2.2 -4.9,-4.9 0,-2.7 2.2,-4.9 4.9,-4.9 2.7,0 4.9,2.2 4.9,4.9 0,2.7 -2.2,4.9 -4.9,4.9 z M 87.2,68.4 c 0,2.7 -2.2,4.9 -4.9,4.9 -2.7,0 -4.9,-2.2 -4.9,-4.9 0,-2.7 2.2,-4.9 4.9,-4.9 2.7,0 4.9,2.2 4.9,4.9 z m -5,-41.7 c 2.7,0 4.9,2.2 4.9,4.9 0,2.7 -2.2,4.9 -4.9,4.9 -2.7,0 -4.9,-2.2 -4.9,-4.9 0,-2.7 2.2,-4.9 4.9,-4.9 z M 50,8.1 c 2.7,0 4.9,2.2 4.9,4.9 0,0.8 -0.2,1.6 -0.6,2.3 0,0 -0.1,0.1 -0.1,0.1 0,0 0,0.1 0,0.1 C 53.4,17 51.8,18 50,18 c -2.7,0 -4.9,-2.2 -4.9,-4.9 0,-2.8 2.2,-5 4.9,-5 z m -6.7,11.2 c 1.7,1.8 4,2.9 6.7,2.9 2.6,0 5,-1.1 6.7,-2.9 L 73.4,29 c -0.2,0.8 -0.4,1.7 -0.4,2.6 0,4.3 3,8 7.1,8.9 v 18.9 c -4,1 -7.1,4.6 -7.1,8.9 0,1 0.1,1.9 0.4,2.8 l -16.7,9.6 c -1.7,-1.8 -4.1,-3 -6.8,-3 -2.7,0 -5.1,1.2 -6.8,3 L 26.4,71.1 c 0.3,-0.9 0.4,-1.8 0.4,-2.8 0,-4.4 -3.1,-8.1 -7.2,-9 V 40.5 c 4.1,-0.9 7.3,-4.6 7.3,-9 0,-0.9 -0.1,-1.8 -0.4,-2.6 z M 12.8,31.6 c 0,-2.7 2.2,-4.9 4.9,-4.9 2.7,0 4.9,2.2 4.9,4.9 0,2.7 -2.2,4.9 -4.9,4.9 -2.7,0 -4.9,-2.2 -4.9,-4.9 z m 37.4,29.3 c 6,0 10.9,-4.9 10.9,-10.9 0,-6 -4.9,-10.9 -10.9,-10.9 -6,0 -10.9,4.9 -10.9,10.9 0,6 4.9,10.9 10.9,10.9 z m 0,-17.6 c 3.7,0 6.7,3 6.7,6.7 0,3.7 -3,6.7 -6.7,6.7 -3.7,0 -6.7,-3 -6.7,-6.7 0,-3.7 3,-6.7 6.7,-6.7 z m -16,-2.7 c 0.6,-1 1.9,-1.3 2.9,-0.7 1,0.6 1.3,1.9 0.7,2.9 -0.6,1 -1.9,1.3 -2.9,0.7 -1,-0.6 -1.3,-1.9 -0.7,-2.9 z m -5.9,-3.4 c 0.6,-1 1.9,-1.3 2.9,-0.7 1,0.6 1.3,1.9 0.7,2.9 -0.6,1 -1.9,1.3 -2.9,0.7 -1,-0.6 -1.3,-1.9 -0.7,-2.9 z m 33.9,20 c 0.6,-1 1.9,-1.3 2.9,-0.7 1,0.6 1.3,1.9 0.7,2.9 -0.6,1 -1.9,1.3 -2.9,0.7 -1,-0.6 -1.3,-1.9 -0.7,-2.9 z m 5.8,3.5 c 0.6,-1 1.9,-1.3 2.9,-0.7 1,0.6 1.3,1.9 0.7,2.9 -0.6,1 -1.9,1.3 -2.9,0.7 C 67.8,63 67.5,61.7 68,60.7 Z m 0.2,-21.1 c -0.6,-1 -0.2,-2.3 0.8,-2.9 1,-0.6 2.3,-0.2 2.9,0.8 0.6,1 0.2,2.3 -0.8,2.9 -1,0.6 -2.3,0.3 -2.9,-0.8 z M 62.3,43 c -0.6,-1 -0.2,-2.3 0.8,-2.9 1,-0.6 2.3,-0.2 2.9,0.8 0.6,1 0.2,2.3 -0.8,2.9 -1,0.6 -2.3,0.2 -2.9,-0.8 z M 28.1,62.5 c -0.6,-1 -0.2,-2.3 0.8,-2.9 1,-0.6 2.3,-0.2 2.9,0.8 0.6,1 0.2,2.3 -0.8,2.9 -1.1,0.6 -2.3,0.2 -2.9,-0.8 z M 34,59.1 c -0.6,-1 -0.2,-2.3 0.8,-2.9 1,-0.6 2.3,-0.2 2.9,0.8 0.6,1 0.2,2.3 -0.8,2.9 -1,0.6 -2.3,0.2 -2.9,-0.8 z M 47.9,26.9 c 0,-1.2 1,-2.1 2.1,-2.1 1.2,0 2.1,1 2.1,2.1 0,1.2 -1,2.1 -2.1,2.1 -1.2,0 -2.1,-0.9 -2.1,-2.1 z m 0,6.8 c 0,-1.2 1,-2.1 2.1,-2.1 1.2,0 2.1,0.9 2.1,2.1 0,1.2 -1,2.1 -2.1,2.1 -1.2,0.1 -2.1,-0.9 -2.1,-2.1 z m 4.2,39.4 c 0,1.2 -1,2.1 -2.1,2.1 -1.2,0 -2.1,-1 -2.1,-2.1 0,-1.2 1,-2.1 2.1,-2.1 1.2,0 2.1,0.9 2.1,2.1 z m 0,-6.8 c 0,1.2 -1,2.1 -2.1,2.1 -1.2,0 -2.1,-0.9 -2.1,-2.1 0,-1.2 1,-2.1 2.1,-2.1 1.2,0 2.1,0.9 2.1,2.1 z"
                                id="path2"
                                style="fill:#ffffff;fill-opacity:1"/>
                    </svg>
                </g>
            </g>
        </g>
    </g>
    <style
            type="text/css"
            id="style10141">
        .st0{fill:#CFF1FF;}
        .st1{fill:#4CC3F2;}
        .st2{fill:#0A557F;}
        .st3{fill:#FFFFFF;}
    </style>
    <style
            type="text/css"
            id="style2929">
        .st0{fill:#69C9C9;}
        .st1{fill:#4D5152;}
    </style>
    <style
            type="text/css"
            id="style2929-0">
        .st0{fill:#69C9C9;}
        .st1{fill:#4D5152;}
    </style>
</svg>
